<svg width="684" height="684" viewBox="0 0 684 684" fill="none" xmlns="http://www.w3.org/2000/svg">
<path d="M613.218 399.754C615.598 388.227 626.8 380.712 638.1 383.045C649.4 385.379 656.697 396.772 654.329 408.242C652.617 416.533 646.658 422.17 639.311 424.205L637.456 417.132C642.307 416.002 646.413 412.173 647.515 406.835C649.063 399.34 644.228 392.362 636.562 390.78C628.897 389.197 621.58 393.666 620.032 401.161C618.918 406.555 621.297 411.664 625.304 414.623L620.776 420.496C614.723 415.694 611.483 408.158 613.218 399.754Z" fill="#F9F9F9"/>
<path d="M629.536 452.233L633.644 453.66L631.362 460.232L599.156 449.05L601.438 442.477L605.6 443.923C603.422 440.65 602.872 436.224 604.451 431.678C607.646 422.476 617.203 417.754 626.897 421.12C636.537 424.467 641.167 434.115 637.972 443.317C636.469 447.644 633.459 450.833 629.536 452.233ZM610.686 434.579C608.689 440.331 611.568 446.179 617.593 448.271C623.564 450.344 629.448 447.538 631.445 441.787C633.422 436.091 630.543 430.242 624.573 428.169C618.548 426.077 612.664 428.883 610.686 434.579Z" fill="#F9F9F9"/>
<path d="M621.772 481.642L621.651 481.906L615.166 478.938L615.335 478.569C617.435 473.982 617.847 468.623 608.99 464.569L594.703 458.03L597.695 451.492L628.695 465.681L625.847 471.902L621.261 469.803C623.579 473.096 623.775 477.267 621.772 481.642Z" fill="#F9F9F9"/>
<path d="M611.863 500.286C606.964 508.705 596.658 511.428 587.838 506.295C578.969 501.133 576.296 490.856 581.195 482.437C583.645 478.228 587.361 475.762 591.313 475.311L587.455 473.066L590.925 467.102L626.003 487.518L622.357 493.782L613.287 488.503C614.539 492.116 614.138 496.378 611.863 500.286ZM587.488 485.227C584.454 490.439 586.159 496.731 591.672 499.939C597.134 503.118 603.447 501.492 606.48 496.281C609.542 491.019 607.837 484.727 602.375 481.548C596.863 478.34 590.55 479.966 587.488 485.227Z" fill="#F9F9F9"/>
<path d="M562.332 510.448C568.535 502.345 579.161 500.768 587.31 507.006C595.413 513.209 596.711 523.914 590.508 532.017C584.305 540.12 573.597 541.707 565.494 535.505C557.299 529.231 556.129 518.551 562.332 510.448ZM567.718 514.571C563.983 519.451 564.871 525.827 569.935 529.704C575.091 533.651 581.467 532.763 585.167 527.929C588.868 523.095 588.015 516.673 582.905 512.761C577.84 508.884 571.419 509.737 567.718 514.571Z" fill="#F9F9F9"/>
<path d="M564.93 561.415C559.597 566.905 552.26 567.053 546.562 561.519L531.006 546.412L536.096 541.171L550.778 555.43C554.147 558.702 558.042 558.686 560.991 555.65C564.101 552.447 564.04 548.266 560.754 545.075L546.114 530.856L551.203 525.615L575.66 549.367L570.813 554.358L568.4 552.015C568.858 555.289 567.555 558.711 564.93 561.415Z" fill="#F9F9F9"/>
<path d="M512.549 561.513L518.375 557.01L543.196 589.121L527.645 601.142L523.567 595.866L533.293 588.349L527.371 580.688L518.334 587.674L514.256 582.398L523.293 575.413L512.549 561.513Z" fill="#F9F9F9"/>
<path d="M488.096 577.681C496.762 572.292 507.26 574.572 512.679 583.288C518.067 591.954 515.498 602.427 506.832 607.815C498.166 613.203 487.588 610.904 482.2 602.238C476.751 593.474 479.43 583.069 488.096 577.681ZM491.678 583.441C486.459 586.687 485.037 592.964 488.404 598.381C491.833 603.895 498.111 605.317 503.281 602.103C508.451 598.888 509.922 592.58 506.524 587.114C503.156 581.698 496.848 580.227 491.678 583.441Z" fill="#F9F9F9"/>
<path d="M458.094 593.857C467.345 589.549 477.492 593.075 481.824 602.378C486.132 611.629 482.323 621.717 473.072 626.025C463.821 630.332 453.596 626.779 449.289 617.528C444.932 608.172 448.843 598.164 458.094 593.857ZM460.957 600.007C455.386 602.601 453.219 608.662 455.912 614.444C458.653 620.331 464.714 622.497 470.233 619.928C475.752 617.358 477.971 611.272 475.254 605.438C472.562 599.656 466.476 597.437 460.957 600.007Z" fill="#F9F9F9"/>
<path d="M430.295 612.49L429.859 612.646L427.709 606.642L429.183 606.114C435.188 603.965 440.075 604.371 442.771 611.904L447.852 626.097L451.182 624.905L453.331 630.91L450.001 632.102L452.111 637.997L446.026 642.331L443.232 634.525L438.592 636.186L436.443 630.181L441.083 628.52L436.096 614.417C434.963 611.25 433.461 611.357 430.295 612.49Z" fill="#F9F9F9"/>
<path d="M416.405 645.888C406.96 648.27 397.822 642.86 395.313 632.91C392.817 623.015 398.283 613.863 407.728 611.481C412.113 610.375 416.319 611.168 419.389 613.383L416.823 603.208L423.906 601.421L433.832 640.775L427.141 642.462L426.05 638.133C424.524 641.807 421.127 644.697 416.405 645.888ZM410.131 617.931C404.228 619.419 400.921 625.037 402.467 631.165C404.026 637.349 409.602 640.727 415.505 639.238C421.408 637.749 424.73 632.188 423.156 625.947C421.61 619.819 416.035 616.442 410.131 617.931Z" fill="#F9F9F9"/>
<path d="M377.826 652.633L377.54 652.677L376.479 645.624L376.881 645.564C381.869 644.814 386.581 642.229 385.132 632.596L382.796 617.059L389.905 615.989L394.975 649.703L388.21 650.72L387.46 645.732C385.97 649.474 382.585 651.918 377.826 652.633Z" fill="#F9F9F9"/>
<path d="M370.039 651.778C372.58 651.553 374.718 653.342 374.939 655.825C375.149 658.193 373.365 660.389 370.824 660.615C368.34 660.835 366.139 658.993 365.929 656.625C365.709 654.142 367.556 651.999 370.039 651.778ZM363.483 619.24L370.818 618.589L373.433 648.043L366.098 648.694L363.483 619.24Z" fill="#F9F9F9"/>
<path d="M342.328 654.821C334.674 654.884 329.414 649.768 329.348 641.825L329.168 620.141L336.473 620.08L336.643 640.546C336.682 645.243 339.43 648.003 343.662 647.968C348.127 647.931 351.059 644.949 351.021 640.369L350.852 619.961L358.157 619.9L358.44 653.991L351.482 654.049L351.454 650.686C349.447 653.312 346.096 654.79 342.328 654.821Z" fill="#F9F9F9"/>
<path d="M312.921 624.974L312.458 624.938L312.944 618.579L314.505 618.698C320.864 619.185 325.161 621.548 324.551 629.526L323.402 644.557L326.929 644.827L326.443 651.186L322.916 650.917L322.439 657.16L315.115 658.636L315.747 650.369L310.833 649.993L311.32 643.634L316.234 644.009L317.432 629.098C317.688 625.745 316.274 625.23 312.921 624.974Z" fill="#F9F9F9"/>
<path d="M251.528 648.295C248.088 647.474 245.552 644.365 246.562 640.135L254.495 606.919L261.206 608.521L253.326 641.512L268.453 615.617C270.303 612.363 272.622 610.89 275.78 611.645C278.881 612.385 280.354 614.704 280.577 618.513L282.381 648.153L290.192 615.444L296.903 617.047L288.97 650.263C287.96 654.493 284.293 656.121 280.909 655.313C277.695 654.545 275.797 652.005 275.526 647.649L273.975 619.201L259.849 643.904C257.792 647.526 254.798 649.077 251.528 648.295Z" fill="#F9F9F9"/>
<path d="M238.035 635.144C240.442 635.99 241.648 638.503 240.821 640.855C240.033 643.098 237.501 644.359 235.094 643.513C232.742 642.686 231.5 640.099 232.288 637.856C233.115 635.504 235.683 634.317 238.035 635.144ZM245.529 602.808L252.476 605.25L242.67 633.147L235.724 630.705L245.529 602.808Z" fill="#F9F9F9"/>
<path d="M211.652 626.419C204.669 623.286 202.02 616.442 205.271 609.195L214.146 589.41L220.812 592.4L212.435 611.074C210.513 615.359 211.86 619.014 215.722 620.746C219.795 622.573 223.703 621.086 225.578 616.907L233.931 598.285L240.597 601.275L226.643 632.381L220.295 629.534L221.671 626.465C218.752 628.015 215.09 627.962 211.652 626.419Z" fill="#F9F9F9"/>
<path d="M192.525 614.791C194.762 616.016 195.545 618.692 194.348 620.879C193.206 622.964 190.503 623.798 188.265 622.573C186.078 621.376 185.272 618.621 186.414 616.536C187.611 614.349 190.338 613.594 192.525 614.791ZM205.162 584.099L211.621 587.634L197.422 613.572L190.963 610.037L205.162 584.099Z" fill="#F9F9F9"/>
<path d="M153.638 592.04C147.741 587.927 146.485 581.113 150.796 574.931L163.599 556.574L169.591 560.753L157.518 578.064C155.097 581.535 155.507 585.002 158.503 587.091C161.832 589.413 165.227 588.6 167.648 585.128L179.721 567.817L185.713 571.997L173.64 589.307C171.086 592.969 171.724 596.312 174.767 598.435C178.049 600.723 181.396 599.877 183.817 596.405L195.89 579.094L201.835 583.24L182.332 611.204L176.816 607.356L178.739 604.598C175.853 605.695 172.47 605.174 169.427 603.051C165.765 600.497 164.353 597.251 164.552 593.926C161.362 594.952 157.538 594.76 153.638 592.04Z" fill="#F9F9F9"/>
<path d="M138.234 576.962C140.159 578.637 140.353 581.418 138.716 583.299C137.156 585.092 134.337 585.33 132.412 583.656C130.531 582.019 130.332 579.156 131.892 577.363C133.528 575.482 136.353 575.326 138.234 576.962ZM157.129 549.673L162.685 554.506L143.279 576.816L137.723 571.984L157.129 549.673Z" fill="#F9F9F9"/>
<path d="M120.341 549.489L143.587 546.25L132.395 535.058L137.15 530.302L151.213 544.364C153.468 546.619 153.304 549.079 151.582 550.801C150.434 551.949 148.958 552.195 147.728 552.359L123.662 555.516L134.035 565.888L129.279 570.644L116.201 557.566C113.946 555.311 114.192 552.933 115.832 551.293C117.225 549.899 119.152 549.612 120.341 549.489Z" fill="#F9F9F9"/>
<path d="M96.7249 528.073L93.3432 530.807L88.9691 525.396L115.482 503.963L119.856 509.374L116.429 512.144C120.358 512.025 124.406 513.897 127.432 517.639C133.556 525.214 132.514 535.823 124.533 542.275C116.598 548.69 105.961 547.522 99.8371 539.947C96.9575 536.385 95.8402 532.144 96.7249 528.073ZM121.674 521.399C117.847 516.665 111.36 516.019 106.4 520.028C101.485 524.001 100.758 530.48 104.585 535.214C108.376 539.903 114.863 540.549 119.777 536.576C124.737 532.567 125.465 526.088 121.674 521.399Z" fill="#F9F9F9"/>
<path d="M101.301 493.597L101.043 493.211L106.347 489.668L107.216 490.97C110.759 496.273 111.552 501.112 104.899 505.557L92.3644 513.932L94.3292 516.873L89.0261 520.416L87.0613 517.475L81.8546 520.954L76.1732 516.103L83.0673 511.497L80.3294 507.399L85.6326 503.856L88.3704 507.954L100.841 499.692C103.637 497.824 103.169 496.393 101.301 493.597Z" fill="#F9F9F9"/>
<path d="M74.1212 499.954C75.4206 502.149 74.7283 504.85 72.5827 506.12C70.537 507.331 67.7866 506.668 66.4872 504.472C65.2173 502.327 65.93 499.547 67.9758 498.336C70.1213 497.066 72.8514 497.808 74.1212 499.954ZM100.651 480.007L104.402 486.344L78.9551 501.405L75.2046 495.068L100.651 480.007Z" fill="#F9F9F9"/>
<path d="M91.6204 461.234C96.0293 470.437 92.6158 480.623 83.3606 485.057C74.1576 489.466 64.0282 485.768 59.6193 476.565C55.2103 467.362 58.6511 457.098 67.8541 452.689C77.1616 448.23 87.2114 452.031 91.6204 461.234ZM85.5025 464.165C82.8471 458.622 76.7623 456.522 71.0105 459.278C65.1541 462.084 63.0545 468.168 65.6849 473.659C68.3152 479.149 74.4251 481.301 80.2292 478.52C85.981 475.765 88.1329 469.655 85.5025 464.165Z" fill="#F9F9F9"/>
<path d="M45.0492 440.472C42.5769 433.229 45.7749 426.623 53.2924 424.057L73.8145 417.053L76.1744 423.967L56.8046 430.578C52.3599 432.095 50.6064 435.573 51.9736 439.579C53.4158 443.804 57.1694 445.647 61.5043 444.168L80.8193 437.575L83.1791 444.489L50.9144 455.502L48.6669 448.917L51.8495 447.831C48.7247 446.753 46.2666 444.039 45.0492 440.472Z" fill="#F9F9F9"/>
</svg>
