<svg xmlns="http://www.w3.org/2000/svg" width="400" height="180"><path d="M128.3 74.58h6l15.09 18.3 15-18.3h6.06v30.84h-7V84.21l-13.73 17.49h-1.45l-13.93-17v20.7h-6V74.58zM194.07 93L201 80.2l7.2 12.8zm-14.58 12.4H187l3.86-6.78h20.4l3.86 6.78h8.46L205 74.58h-7.22zM231.18 74.58h7.6V87l18-12.46h10.84l-21.27 14.33L270 105.42h-11.85l-19.37-13.93v13.93h-7.6zM276.34 74.58h7.5v30.84h-7.5zM297.5 74.58h5.18l26.15 20.5v-20.5h6.78v30.84h-5.16l-26.11-20.78v20.78h-6.84V74.58zM359.26 93l6.92-12.82L373.4 93zm-14.57 12.4h7.5l3.87-6.78h20.41l3.85 6.78h8.47L370.2 74.58H363zM115.05 99.65H91.13v-7.58h22.57c0-.72-.13-1.4-.13-2.14 0-1.09.08-2.13.17-3.18H91.13v-6.7h24a17.35 17.35 0 0 1 2.83-5.47H83.55v30.84h34.52a16.94 16.94 0 0 1-3.02-5.77zM8.79 56.89h31.3v4.78H8.79zM8.79 68.04h31.3v4.79H8.79zM8.79 79.19h31.3v4.79H8.79zM33.98 92.22h5.51v30.89h-5.51zM21.66 92.22h5.49v30.89h-5.49zM9.45 92.22h5.5v30.89h-5.5z"/></svg>